# xmcd
#
# Track frame offsets: 
#        150
#        15021
#        31026
#        44688
#        60706
#        73337
#        100156
#        118235
#        136008
#        152104
#        170552
#        191132
#        202219
#        240105
#        249617
#        260678
#        270137
#        286255
#
# Disc length: 3991 seconds
#
# Revision: 0
# Processed by: cddbd v1.5.2PL0 Copyright (c) Steve Scherf et al.
# Submitted via: ExactAudioCopyFreeDBPlugin 1.0
#
DISCID=fd0f9512
DTITLE=Bonnie McCoy  - A Child Of The Blues
DYEAR=1900
DGENRE=Blues
TTITLE0=Black Cat Blues
TTITLE1=Tears Come Rollin' Down
TTITLE2=Go To Bed Sleepy Head
TTITLE3=Tin Pan Alley
TTITLE4=New Cadillac
TTITLE5=Bumble Bee [2011]
TTITLE6=I Cried All Night Long
TTITLE7=Me and My Chauffeur
TTITLE8=Way Down South
TTITLE9=Penitentiary Blues (Mary)
TTITLE10=Childhood Dream Blues
TTITLE11=Bumble Bee [1979]
TTITLE12=Medley Tribute For Ethel
TTITLE13=Skin and Bones
TTITLE14=Sunnyland
TTITLE15=Rocks In My Bed
TTITLE16=Midnight Blues
TTITLE17=Early In the Morning
EXTD=
EXTT0=
EXTT1=
EXTT2=
EXTT3=
EXTT4=
EXTT5=
EXTT6=
EXTT7=
EXTT8=
EXTT9=
EXTT10=
EXTT11=
EXTT12=
EXTT13=
EXTT14=
EXTT15=
EXTT16=
EXTT17=
PLAYORDER=
